<?xml version="1.0" encoding="UTF-8"?>
<svg id="_Слой_1" data-name="Слой 1" xmlns="http://www.w3.org/2000/svg" viewBox="0 0 138.09 87.39">
  <defs>
    <style>
      .cls-1 {
        fill: #fbfceb;
      }

      .cls-2 {
        fill: #f2f2f2;
      }

      .cls-3 {
        fill: #ade4df;
      }

      .cls-4 {
        fill: #006b62;
      }
    </style>
  </defs>
  <path class="cls-1" d="M6.04,10.81l-.04-.5-3,3c22.4-1.7,44.72-4.17,66.96-7.37l-3.69-2.1.07.5,2.1-3.69C46.73,3.77,24.92,6.15,3.04,7.81c-3.83.29-3.86,6.29,0,6,22.41-1.7,44.75-4.17,66.99-7.38,1.74-.25,2.3-2.26,2.1-3.69l-.07-.5c-.25-1.74-2.26-2.3-3.69-2.1C46.67,3.28,24.87,5.65,3.01,7.31,1.48,7.42-.12,8.59,0,10.31l.04.5c.28,3.83,6.29,3.86,6,0Z"/>
  <path class="cls-4" d="M3.03,13.56c22.41-1.7,44.74-4.17,66.98-7.38,3.81-.55,2.19-6.33-1.6-5.79C46.7,3.52,24.89,5.9,3.03,7.56c-3.83.29-3.86,6.29,0,6h0Z"/>
  <path class="cls-1" d="M8.5,74.37l-.47-.18,2.1,3.69c8.89-22.7,17.78-45.4,26.68-68.09l-3.69,2.1.47.18-2.1-3.69C22.59,31.07,13.7,53.77,4.81,76.46c-1.41,3.6,4.39,5.16,5.79,1.6,8.89-22.7,17.78-45.39,26.68-68.09.63-1.62-.72-3.15-2.1-3.69l-.47-.18c-1.62-.63-3.15.72-3.69,2.1C22.13,30.89,13.24,53.58,4.34,76.28c-.63,1.62.72,3.15,2.1,3.69l.47.18c3.6,1.4,5.16-4.4,1.6-5.79Z"/>
  <path class="cls-4" d="M31.25,8.28C22.36,30.98,13.47,53.68,4.58,76.37c-1.41,3.6,4.39,5.16,5.79,1.6,8.89-22.7,17.78-45.39,26.68-68.09,1.41-3.6-4.39-5.16-5.79-1.6h0Z"/>
  <path class="cls-1" d="M40.24,65.55c13.01-14.14,30.89-24.18,42.14-39.88,3.35-4.67,7.88-13.55.7-17.1-6.67-3.31-14.51.88-18.92,5.88h4.24l-.39-.31v4.24c2.31-2.62,5-4.79,8.57-5.23,5.2-.64,5.27,2.43,3.21,6.33-3.02,5.74-8.2,10.38-12.92,14.71-9.72,8.92-20.36,16.74-29.47,26.33-2.15,2.26.03,5.59,2.92,5.01,19.1-3.78,38.47-5.35,57.93-4.76l-3-3-.02.5,3-3c-20.47-.62-40.87,1.17-60.93,5.28-3.78.77-2.18,6.56,1.6,5.79,19.54-4,39.4-5.66,59.34-5.06,1.66.05,2.94-1.42,3-3l.02-.5c.06-1.66-1.42-2.95-3-3-19.99-.6-39.91,1.09-59.53,4.98l2.92,5.01c6.77-7.13,14.35-13.33,21.84-19.67s15.03-12.47,20.21-20.47c3.28-5.07,6.57-13.54-.87-16.7-6.89-2.93-14.53,1.07-19.06,6.22-.98,1.12-1.32,3.17,0,4.24l.39.31c1.2.97,3.08,1.32,4.24,0,2.4-2.73,5.4-5.1,9.21-5.18,4.68-.1,2.96,3.6,1.33,6.44-3.37,5.86-8.8,10.64-13.78,15.11-9.74,8.76-20.27,16.58-29.17,26.25-2.61,2.84,1.62,7.09,4.24,4.24Z"/>
  <path class="cls-4" d="M68.21,18.54c2.46-2.79,5.53-5.15,9.41-5.27,4.5-.13,3.62,2.89,1.98,6.04-3.06,5.86-8.43,10.62-13.25,15.01-9.83,8.95-20.54,16.85-29.65,26.58-2.12,2.26,0,5.6,2.92,5.01,19.31-3.9,38.95-5.52,58.64-4.91,3.86.12,3.86-5.88,0-6-20.22-.62-40.4,1.12-60.23,5.13l2.92,5.01c13.08-13.98,31.31-24.09,42.15-40.05,3.22-4.74,7.08-13.12.26-16.68s-14.89.78-19.38,5.87c-2.55,2.89,1.68,7.15,4.24,4.24h0Z"/>
  <path class="cls-1" d="M99.51,81.39c-10.14-.27-20.48-2.99-30.46-4.67-11.81-1.99-23.61-4.02-35.4-6.11l2.1,3.69.09-.49-3.69,2.1c16.51,2.94,33.05,5.71,49.58,8.5,12.08,2.04,24.39,4.75,35.33-2.72s11.99-22.38,4.69-33.02c-5.02-7.32-12.93-17.51-13.44-25.92-.6-10,8.15-20.47,18.95-15.56,9.95,4.52,2.93,14.22-3.95,17.46l4.1,1.08-.2-.46-1.08,4.1c10.82-5.12,17.26-20.2,4.1-26.83s-28.11,5.21-27.48,19.44c.43,9.73,6.93,18.63,12.14,26.38,4.44,6.6,8.52,12.96,5.21,21.31s-12.47,11.54-20.59,11.72c-3.86.09-3.87,6.09,0,6,10.83-.24,22.46-5.27,26.38-16.12,1.95-5.41,1.83-11.96-.38-17.27-2.35-5.66-6.89-10.65-10.05-15.89-4.26-7.06-8.74-14.3-5.95-22.35,2.74-7.92,14.13-12.94,20.71-6.07,5.26,5.49-2.46,12.29-7.1,14.49-1.59.75-1.67,2.73-1.08,4.1l.2.46c.68,1.58,2.79,1.7,4.1,1.08,11.27-5.31,17.72-21.07,3.95-27.83-14.71-7.22-29.16,6.33-27.94,21.19.86,10.46,8.54,20.2,14.22,28.49,5,7.3,6.26,17.25-1.11,23.7-6.15,5.38-14.69,6.12-22.42,4.89-19.79-3.15-39.55-6.65-59.28-10.16-1.48-.26-3.38.38-3.69,2.1l-.09.49c-.26,1.48.39,3.39,2.1,3.69,12.28,2.18,24.57,4.29,36.87,6.36,10.03,1.69,20.38,4.36,30.58,4.64,3.86.1,3.86-5.9,0-6Z"/>
  <path class="cls-4" d="M126.24,29.59c12.07-5.72,17.25-22.35,2.27-28.09s-27.52,8.49-25.82,22.69c1.41,11.76,10.92,20.86,16.37,30.81,3.31,6.04,2.4,14.58-2.39,19.55-5.97,6.2-15.29,7.32-23.38,6.01-19.89-3.22-39.76-6.69-59.59-10.22-3.78-.67-5.4,5.11-1.6,5.79,16.89,3,33.8,5.83,50.72,8.69,12.43,2.11,25.43,4.47,36.1-4.23,8.71-7.1,10.57-20.49,4.54-29.88-5.34-8.31-14.37-18.45-14.92-28.26s7.7-19.29,17.94-15.35,3.78,13.95-3.27,17.3c-3.49,1.65-.45,6.83,3.03,5.18h0Z"/>
  <g>
    <polygon class="cls-3" points="43.14 12.53 46.45 36.2 66.58 49.1 42.91 52.41 30.01 72.54 26.7 48.86 6.57 35.97 30.24 32.65 43.14 12.53"/>
    <polygon class="cls-2" points="39.66 28.44 41.21 39.56 50.67 45.62 39.55 47.17 33.49 56.63 31.93 45.51 22.48 39.45 33.6 37.89 39.66 28.44"/>
  </g>
</svg>